<svg width="138" height="40" viewBox="0 0 138 40" fill="none">
<path d="M114.523 20.1737C114.523 24.119 111.484 27.3985 107.55 27.6987L19.8297 34.392C11.6025 35.0198 4.58081 28.5135 4.58081 20.2624C4.58081 12.0226 11.5841 5.52021 19.8013 6.1306L107.535 12.6476C111.475 12.9403 114.523 16.2226 114.523 20.1737Z" fill="#B31E1A"/>
<g clip-path="url(#clip0_3595_54107)">
<path d="M26.6424 21.6864C26.2361 20.9489 25.7282 20.3589 25.1188 19.9165C24.8141 19.7198 24.5601 19.5723 24.2554 19.4248C24.9156 19.0315 25.4235 18.5399 25.779 17.9007C26.1853 17.2124 26.3376 16.3766 26.3376 15.4425C26.3376 13.7218 25.9314 12.3943 25.1696 11.4111C24.4078 10.4769 23.1889 9.93613 21.6145 9.8378C19.0244 9.69031 17.8056 9.59198 15.2663 9.44449C14.8092 9.39532 14.4537 9.59198 14.1998 9.93613C13.9458 10.2803 13.7427 10.7228 13.7427 11.3127V29.7985C13.7427 30.3393 13.895 30.8309 14.1998 31.1751C14.5045 31.5192 14.86 31.6667 15.2663 31.6667C17.7548 31.5192 18.9737 31.4209 21.513 31.2734C22.1224 31.2242 22.7826 31.0767 23.4428 30.8801C24.1031 30.6834 24.7125 30.2901 25.3219 29.7985C25.8806 29.3068 26.3884 28.6185 26.7439 27.7827C27.0994 26.9469 27.3026 25.8653 27.3026 24.5871C27.2518 23.4071 27.0487 22.4238 26.6424 21.6864ZM16.993 13.2793C18.5674 13.3285 19.4307 13.3776 21.1067 13.476C21.7161 13.5251 22.1732 13.7218 22.5287 14.1151C22.8842 14.5084 23.0873 15.1475 23.0873 16.0325C23.0873 16.77 22.8842 17.3108 22.5287 17.7041C22.1224 18.0974 21.7161 18.294 21.2082 18.2449C19.5323 18.2449 18.6181 18.1957 16.993 18.1957V13.2793ZM23.2905 26.8978C22.8334 27.3894 22.224 27.6844 21.4622 27.7336C19.6339 27.8319 18.7197 27.8319 16.9422 27.9302V21.883C18.6181 21.883 19.5323 21.883 21.259 21.8339C21.6145 21.8339 22.0208 21.883 22.4271 21.9814C22.8334 22.0797 23.1889 22.3255 23.4936 22.7188C23.7983 23.1121 23.9507 23.7513 23.9507 24.6854C24.0015 25.6687 23.7476 26.4061 23.2905 26.8978Z" fill="#FEFFFF"/>
<path d="M42.0813 27.8319C39.9991 22.5222 37.9169 17.1633 35.9362 11.8044C35.8346 11.4602 35.6315 11.1652 35.3776 10.9686C35.1236 10.7719 34.8189 10.6736 34.5142 10.6244C34.2095 10.5753 33.9048 10.6244 33.6 10.8211C33.3461 11.0177 33.143 11.3127 32.9906 11.6569C30.8576 17.4091 28.7753 23.1613 26.7947 28.9627C26.7439 29.1593 26.6931 29.356 26.6931 29.5526C26.6931 29.9951 26.7947 30.3393 26.9978 30.6343C27.201 30.9292 27.5565 31.0276 28.0136 31.0276C28.3183 31.0276 28.5722 30.8801 28.8261 30.6834C29.0801 30.4868 29.2324 30.1426 29.3848 29.7985C29.7911 28.6185 30.2481 27.3894 30.6544 26.2095C33.5492 26.1111 35.2252 26.062 38.12 25.9637C38.5263 27.0453 38.9834 28.1269 39.4404 29.2085C39.5928 29.5526 39.7452 29.7985 39.9991 29.9951C40.253 30.1918 40.507 30.2409 40.8117 30.2409C41.1672 30.2409 41.4719 30.0443 41.7766 29.7493C42.0813 29.4543 42.2337 29.061 42.2337 28.5694C42.2337 28.2252 42.1829 28.0286 42.0813 27.8319ZM31.9241 22.768C32.7367 20.5556 33.5492 18.3432 34.4126 16.1308C35.2252 18.3432 36.0886 20.5064 36.9011 22.6697C35.1236 22.7188 33.9048 22.768 31.9241 22.768Z" fill="#FEFFFF"/>
<path d="M57.2155 13.5252V27.4386C57.2155 27.8811 57.0632 28.2253 56.7585 28.5203C56.4537 28.8152 56.0982 28.9627 55.6919 29.0119C55.4888 29.0119 55.2349 29.0119 55.0317 28.9627C54.8286 28.9136 54.6254 28.8152 54.5239 28.7169C51.2735 24.8821 48.2772 20.9981 45.3316 17.065V28.2253C45.3316 28.6186 45.23 29.0119 44.9253 29.3069C44.6713 29.6019 44.3158 29.7494 43.9096 29.7985C43.5033 29.8477 43.1985 29.7002 42.9446 29.4544C42.6907 29.2086 42.5891 28.8644 42.5891 28.4219V12.8369C42.5891 12.3944 42.7415 12.0011 43.0462 11.7061C43.3509 11.4111 43.7064 11.2636 44.1127 11.3128C44.3666 11.3128 44.5698 11.4111 44.8237 11.5094C45.0776 11.6078 45.23 11.7553 45.3824 12.0011C48.3279 16.0325 51.3243 20.0148 54.4731 23.8497V13.3777C54.4731 12.9844 54.5746 12.6894 54.8286 12.4436C55.0825 12.1977 55.438 12.0994 55.8443 12.0994C56.2506 12.0994 56.5553 12.2961 56.8092 12.5419C57.0632 12.8369 57.2155 13.1319 57.2155 13.5252Z" fill="#FEFFFF"/>
<path d="M73.6197 21.2439V25.6686C73.6197 25.9636 73.5181 26.1603 73.3657 26.3569C73.2134 26.5536 73.0102 26.7011 72.8071 26.8486C72.0453 27.2911 71.1819 27.6352 70.2678 27.9302C69.3536 28.2252 68.3887 28.4218 67.4237 28.471C66.1541 28.5693 64.986 28.4218 63.8687 28.0777C62.7514 27.7335 61.7865 27.1927 60.9739 26.4553C60.1613 25.7178 59.5011 24.882 58.9932 23.8496C58.5362 22.8663 58.2822 21.7355 58.2822 20.5556C58.2822 19.3756 58.5362 18.2449 58.9932 17.2616C59.4503 16.2783 60.1105 15.3933 60.9739 14.6559C61.7865 13.9184 62.7514 13.3776 63.8687 13.0334C64.986 12.6893 66.1541 12.5418 67.4237 12.6401C68.1855 12.6893 68.9473 12.8368 69.7091 13.0334C70.4201 13.2301 71.1311 13.4759 71.7406 13.7709C71.9945 13.9184 72.1976 14.0659 72.2992 14.2626C72.4008 14.4592 72.5024 14.6559 72.5024 14.8525C72.5024 15.1967 72.35 15.4917 72.0961 15.7375C71.8421 15.9833 71.4866 16.1308 71.0803 16.0816C70.928 16.0816 70.8264 16.0816 70.6741 16.0325C70.5217 15.9833 70.4201 15.9341 70.2678 15.885C69.8615 15.7375 69.4044 15.59 68.9473 15.4425C68.4902 15.3442 67.9824 15.2458 67.4745 15.2458C66.408 15.1967 65.3923 15.3933 64.5289 15.8358C63.6148 16.2783 62.9038 16.9174 62.3959 17.7532C61.888 18.589 61.5833 19.5231 61.5833 20.5064C61.5833 21.4897 61.8373 22.4238 62.3959 23.2596C62.9038 24.0954 63.6148 24.7345 64.5289 25.177C65.4431 25.6195 66.408 25.8161 67.4745 25.767C67.9824 25.767 68.541 25.6686 69.0997 25.5703C69.6075 25.472 70.0138 25.3737 70.3693 25.2262V22.473C69.506 22.473 68.9981 22.473 68.0332 22.5221C67.5761 22.5221 67.2206 22.4238 66.9667 22.178C66.6619 21.9322 66.5096 21.6372 66.5096 21.2439C66.5096 20.8506 66.6619 20.5556 66.9667 20.3097C67.2714 20.0639 67.6269 19.9164 68.0332 19.9164C69.6583 19.9164 70.4709 19.9164 72.1469 19.9164C72.5531 19.9164 72.9594 20.0148 73.2134 20.3097C73.4673 20.6047 73.6197 20.8506 73.6197 21.2439Z" fill="#FEFFFF"/>
<path d="M87.281 14.1643C87.7381 14.2135 88.0428 14.3118 88.3475 14.5576C88.6014 14.8034 88.7538 15.0493 88.7538 15.3443C88.7538 17.95 88.7538 19.2282 88.7538 21.8339C88.7538 22.8172 88.4491 23.7022 87.8904 24.4888C87.281 25.2754 86.4684 25.9146 85.4527 26.4554C84.437 26.947 83.2181 27.2912 81.8469 27.3403C80.4756 27.4386 79.2568 27.2912 78.241 26.8487C77.1745 26.4554 76.362 25.8162 75.8033 24.9804C75.1939 24.1446 74.9399 23.1122 74.9399 21.9814C74.9399 18.9824 74.9399 17.5075 74.9399 14.5576C74.9399 14.2135 75.0923 13.9185 75.397 13.6727C75.7017 13.476 76.0572 13.3777 76.5651 13.3777C76.9714 13.4268 77.2761 13.5252 77.5808 13.8202C77.8855 14.066 78.0379 14.361 78.0379 14.7051C78.0379 17.6058 78.0379 19.0316 78.0379 21.9323C78.0379 22.6206 78.241 23.1614 78.5965 23.653C78.952 24.1446 79.4091 24.4888 80.0186 24.7346C80.628 24.9804 81.2374 25.0788 81.8976 25.0296C82.6087 24.9804 83.2689 24.8329 83.8783 24.5871C84.4877 24.2921 84.9956 23.948 85.4019 23.4563C85.8082 23.0139 85.9605 22.4731 85.9605 21.8339C85.9605 19.1791 85.9605 17.8025 85.9605 15.1476C85.9605 14.8034 86.0621 14.5576 86.316 14.361C86.5192 14.2135 86.8747 14.1151 87.281 14.1643Z" fill="#FEFFFF"/>
<path d="M105.361 16.18V24.8329C105.361 25.0787 105.209 25.3245 104.904 25.5212C104.599 25.7178 104.244 25.8162 103.837 25.8653C103.634 25.8653 103.38 25.8653 103.177 25.8653C102.974 25.8162 102.771 25.767 102.669 25.7178C98.962 23.063 96.9813 21.4897 93.4771 18.3432V25.6195C93.4771 25.8653 93.3755 26.1111 93.0708 26.3078C92.8168 26.5045 92.4613 26.6028 92.0551 26.652C91.6488 26.652 91.3441 26.6028 91.0901 26.4553C90.8362 26.3078 90.7346 26.062 90.7346 25.767V15.4425C90.7346 15.1475 90.887 14.9017 91.1917 14.705C91.4964 14.5084 91.8519 14.4592 92.2582 14.4592C92.5121 14.4592 92.7153 14.5084 92.9692 14.6067C93.2231 14.705 93.4263 14.8034 93.5279 14.9017C97.1845 18.294 99.1143 19.9165 102.619 22.5713V16.0325C102.619 15.7867 102.72 15.59 102.974 15.4425C103.228 15.295 103.533 15.2459 103.99 15.2459C104.396 15.295 104.701 15.3933 104.955 15.5408C105.209 15.7375 105.361 15.9342 105.361 16.18Z" fill="#FEFFFF"/>
</g>
<ellipse cx="126.548" cy="20.5556" rx="7.44398" ry="7.22222" fill="#B31E1A"/>
<defs>
<clipPath id="clip0_3595_54107">
<rect width="91.6183" height="22.2222" fill="white" transform="translate(13.7427 9.44446)"/>
</clipPath>
</defs>
</svg>
