<svg width="12" height="12" viewBox="0 0 12 12" fill="none" xmlns="http://www.w3.org/2000/svg">
<path fill-rule="evenodd" clip-rule="evenodd" d="M0.5 2.5C0.5 1.94772 0.947715 1.5 1.5 1.5H10.5C11.0523 1.5 11.5 1.94772 11.5 2.5V9.5C11.5 10.0523 11.0523 10.5 10.5 10.5H1.5C0.94772 10.5 0.5 10.0523 0.5 9.5V2.5ZM1.5 4.5V9.5H10.5V4.5H1.5ZM10.5 3.5H1.5V2.5H10.5V3.5ZM6.25 8C6.25 7.72386 6.47386 7.5 6.75 7.5H9C9.27614 7.5 9.5 7.72386 9.5 8C9.5 8.27614 9.27614 8.5 9 8.5H6.75C6.47386 8.5 6.25 8.27614 6.25 8Z" fill="currentColor"/>
</svg>
