<svg width="18" height="20" viewBox="0 0 18 20" fill="none" xmlns="http://www.w3.org/2000/svg">
<path fill-rule="evenodd" clip-rule="evenodd" d="M15.999 2H14.999V1C14.999 0.45 14.549 0 13.999 0C13.449 0 12.999 0.45 12.999 1V2H4.99902V1C4.99902 0.45 4.54902 0 3.99902 0C3.44902 0 2.99902 0.45 2.99902 1V2H1.99902C0.889023 2 0.00902344 2.9 0.00902344 4L-0.000976562 18C-0.000976562 19.1 0.889023 20 1.99902 20H15.999C17.099 20 17.999 19.1 17.999 18V4C17.999 2.9 17.099 2 15.999 2ZM15.999 17C15.999 17.55 15.549 18 14.999 18H2.99902C2.44902 18 1.99902 17.55 1.99902 17V7H15.999V17ZM3.99902 9H5.99902V11H3.99902V9ZM7.99902 9H9.99902V11H7.99902V9ZM11.999 9H13.999V11H11.999V9Z" fill="currentColor"/>
</svg>
