<svg width="12" height="12" viewBox="0 0 12 12" fill="none" xmlns="http://www.w3.org/2000/svg">
<path fill-rule="evenodd" clip-rule="evenodd" d="M2.18182 2.18182V1.36364C2.18182 0.610528 2.79232 0 3.54545 0H10.6364C11.3895 0 12 0.610528 12 1.36364V8.45455C12 9.20767 11.3895 9.81818 10.6364 9.81818H9.81818V10.6364C9.81818 11.3895 9.20766 12 8.45455 12H1.36364C0.610521 12 0 11.3895 0 10.6364V3.54545C0 2.79234 0.610521 2.18182 1.36364 2.18182H2.18182ZM3.27273 1.36364C3.27273 1.21301 3.39482 1.09091 3.54545 1.09091H10.6364C10.787 1.09091 10.9091 1.21301 10.9091 1.36364V8.45455C10.9091 8.60518 10.787 8.72727 10.6364 8.72727H9.81818V3.54545C9.81818 2.79234 9.20766 2.18182 8.45455 2.18182H3.27273V1.36364Z" fill="currentColor"/>
</svg>
