<svg width="100" height="88" viewBox="0 0 100 88" fill="none">
<path d="M0 28.4663L45.8903 1.12841C48.4237 -0.376136 51.5763 -0.376136 54.1097 1.12841L100 28.4663V73.0264L0 68.0406V28.4663Z" fill="#464952"/>
<path d="M91.3987 79.9927H8.60126V8.72791H91.3987V79.9927Z" fill="#D0D3DA"/>
<path d="M11.1736 11.8107C11.1736 11.3507 11.5479 10.97 12.0177 10.97C12.4795 10.97 12.8617 11.3428 12.8617 11.8107C12.8617 12.2787 12.4875 12.6515 12.0177 12.6515C11.5559 12.6515 11.1736 12.2787 11.1736 11.8107Z" fill="#717580"/>
<path d="M87.1382 11.8107C87.1382 11.3507 87.5125 10.97 87.9823 10.97C88.4441 10.97 88.8263 11.3428 88.8263 11.8107C88.8263 12.2787 88.4521 12.6515 87.9823 12.6515C87.5125 12.6515 87.1382 12.2787 87.1382 11.8107Z" fill="#717580"/>
<path d="M87.9421 11.9309H11.9775V11.6907H87.9421V11.9309Z" fill="#717580"/>
<path d="M11.8971 87.1192V11.4504H12.1383V87.1192H11.8971Z" fill="#717580"/>
<path d="M87.9421 87.1192V11.4504H88.1029V87.1192H87.9421Z" fill="#717580"/>
<path d="M100 28.3458V88.0001H0V28.3458L50 58.1729L100 28.3458Z" fill="#717580"/>
<path d="M0 88L45.8018 55.2371C48.3111 53.4397 51.6889 53.4397 54.1982 55.2371L100 88H0Z" fill="#464952"/>
<path d="M65.2816 18.5769H35.1204C34.6784 18.5769 34.3248 18.213 34.3248 17.7762C34.3248 17.3394 34.6864 16.9755 35.1204 16.9755H65.2816C65.7236 16.9755 66.0772 17.3394 66.0772 17.7762C66.0772 18.221 65.7155 18.5769 65.2816 18.5769Z" fill="#717580"/>
<path d="M73.078 21.7798H27.324C26.8895 21.7798 26.5273 21.4158 26.5273 20.9791C26.5273 20.5423 26.8895 20.1783 27.324 20.1783H73.078C73.5125 20.1783 73.8746 20.5423 73.8746 20.9791C73.8746 21.4158 73.5125 21.7798 73.078 21.7798Z" fill="#717580"/>
<path d="M67.1058 31.6287H34.0195C33.7059 31.6287 33.4405 31.3796 33.4405 31.0682C33.4405 30.7568 33.6978 30.5077 34.0195 30.5077H67.1058C67.4195 30.5077 67.6849 30.7568 67.6849 31.0682C67.6849 31.3796 67.4275 31.6287 67.1058 31.6287Z" fill="#717580"/>
<path d="M37.3651 34.5915H28.069C27.7565 34.5915 27.492 34.3424 27.492 34.031C27.492 33.7274 27.7484 33.4705 28.069 33.4705H37.3651C37.6777 33.4705 37.9421 33.7196 37.9421 34.031C37.9421 34.3424 37.6777 34.5915 37.3651 34.5915Z" fill="#717580"/>
<path d="M51.4294 34.5915H40.1301C39.8158 34.5915 39.5499 34.3424 39.5499 34.031C39.5499 33.7274 39.8078 33.4705 40.1301 33.4705H51.4294C51.7437 33.4705 52.0097 33.7196 52.0097 34.031C52.0016 34.3424 51.7437 34.5915 51.4294 34.5915Z" fill="#717580"/>
<path d="M73.1344 34.5915H53.6341C53.3203 34.5915 53.0547 34.3424 53.0547 34.031C53.0547 33.7274 53.3122 33.4705 53.6341 33.4705H73.1344C73.4483 33.4705 73.7139 33.7196 73.7139 34.031C73.7139 34.3424 73.4563 34.5915 73.1344 34.5915Z" fill="#717580"/>
<path d="M51.5108 38.1147H33.3767C33.0629 38.1147 32.7974 37.8656 32.7974 37.5542C32.7974 37.2505 33.0549 36.9937 33.3767 36.9937H51.5108C51.8246 36.9937 52.0901 37.2428 52.0901 37.5542C52.0901 37.8656 51.8246 38.1147 51.5108 38.1147Z" fill="#717580"/>
<path d="M67.7489 38.1147H53.473C53.1593 38.1147 52.8939 37.8656 52.8939 37.5542C52.8939 37.2505 53.1513 36.9937 53.473 36.9937H67.7489C68.0626 36.9937 68.328 37.2428 68.328 37.5542C68.32 37.8656 68.0626 38.1147 67.7489 38.1147Z" fill="#717580"/>
<path d="M23.8157 84.4768H6.57026C5.60413 84.4768 4.82318 83.6985 4.82318 82.7358V78.0503C4.82318 77.0876 5.60413 76.3093 6.57026 76.3093H23.8157C24.7818 76.3093 25.5627 77.0876 25.5627 78.0503V82.7358C25.5627 83.6985 24.7818 84.4768 23.8157 84.4768Z" fill="#D0D3DA"/>
<path d="M20.3135 78.3112H7.33925C7.19456 78.3112 7.07397 78.2021 7.07397 78.071C7.07397 77.94 7.19456 77.8308 7.33925 77.8308H20.3135C20.4582 77.8308 20.5788 77.94 20.5788 78.071C20.5788 78.2093 20.4582 78.3112 20.3135 78.3112Z" fill="#717580"/>
<path d="M9.62371 79.4323H7.33774C7.19387 79.4323 7.07397 79.3231 7.07397 79.192C7.07397 79.061 7.19387 78.9518 7.33774 78.9518H9.62371C9.76758 78.9518 9.88748 79.061 9.88748 79.192C9.87949 79.3231 9.76758 79.4323 9.62371 79.4323Z" fill="#717580"/>
<path d="M16.9354 79.4323H10.5565C10.4108 79.4323 10.2894 79.3231 10.2894 79.192C10.2894 79.061 10.4108 78.9518 10.5565 78.9518H16.9354C17.0811 78.9518 17.2026 79.061 17.2026 79.192C17.2026 79.3231 17.0811 79.4323 16.9354 79.4323Z" fill="#717580"/>
<path d="M20.3135 81.5942H7.33925C7.19456 81.5942 7.07397 81.4668 7.07397 81.314C7.07397 81.1611 7.19456 81.0337 7.33925 81.0337H20.3135C20.4582 81.0337 20.5788 81.1611 20.5788 81.314C20.5788 81.4668 20.4582 81.5942 20.3135 81.5942Z" fill="#717580"/>
<path d="M12.0346 82.7152H7.33844C7.19419 82.7152 7.07397 82.5878 7.07397 82.4349C7.07397 82.2821 7.19419 82.1547 7.33844 82.1547H12.0346C12.1789 82.1547 12.2991 82.2821 12.2991 82.4349C12.2991 82.5878 12.1789 82.7152 12.0346 82.7152Z" fill="#717580"/>
<path d="M17.8183 82.7152H13.0499C12.9034 82.7152 12.7814 82.5878 12.7814 82.4349C12.7814 82.2821 12.9034 82.1547 13.0499 82.1547H17.8183C17.9648 82.1547 18.0868 82.2821 18.0868 82.4349C18.0868 82.5878 17.9648 82.7152 17.8183 82.7152Z" fill="#717580"/>
</svg>
