<svg width="24" height="24" viewBox="0 0 24 24" fill="none">
  <path fill-rule="evenodd" clip-rule="evenodd" d="M21 6C21 6.55228 20.5523 7 20 7H4C3.44772 7 3 6.55228 3 6C3 5.44772 3.44772 5 4 5H20C20.5523 5 21 5.44772 21 6ZM21 12C21 12.5523 20.5523 13 20 13L4 13C3.44772 13 3 12.5523 3 12C3 11.4477 3.44772 11 4 11L20 11C20.5523 11 21 11.4477 21 12ZM20 19C20.5523 19 21 18.5523 21 18C21 17.4477 20.5523 17 20 17H4C3.44772 17 3 17.4477 3 18C3 18.5523 3.44772 19 4 19H20Z" fill="currentColor"/>
</svg>
