<svg width="101" height="88" viewBox="0 0 101 88" fill="none" xmlns="http://www.w3.org/2000/svg">
<path d="M0.5 28.4663L46.3903 1.12841C48.9237 -0.376136 52.0763 -0.376136 54.6097 1.12841L100.5 28.4663V73.0264L0.5 68.0406V28.4663Z" fill="#B31E1A"/>
<path d="M91.8987 79.9927H9.10129V8.72794H91.8987V79.9927Z" fill="#EAECF1"/>
<path d="M11.6736 11.8107C11.6736 11.3507 12.0479 10.97 12.5177 10.97C12.9795 10.97 13.3617 11.3428 13.3617 11.8107C13.3617 12.2787 12.9875 12.6515 12.5177 12.6515C12.0558 12.6515 11.6736 12.2787 11.6736 11.8107Z" fill="#70748F"/>
<path d="M87.6383 11.8107C87.6383 11.3507 88.0125 10.97 88.4823 10.97C88.9441 10.97 89.3264 11.3428 89.3264 11.8107C89.3264 12.2787 88.9521 12.6515 88.4823 12.6515C88.0125 12.6515 87.6383 12.2787 87.6383 11.8107Z" fill="#70748F"/>
<path d="M88.4421 11.9308H12.4775V11.6906H88.4421V11.9308Z" fill="#70748F"/>
<path d="M12.3971 87.1192V11.4504H12.6383V87.1192H12.3971Z" fill="#70748F"/>
<path d="M88.4421 87.1192V11.4504H88.6029V87.1192H88.4421Z" fill="#70748F"/>
<path d="M100.5 28.3458V88H0.5V28.3458L50.5 58.1729L100.5 28.3458Z" fill="#F0D2D1"/>
<path d="M0.5 88L46.3018 55.237C48.8111 53.4396 52.1889 53.4396 54.6982 55.237L100.5 88H0.5Z" fill="#B31E1A"/>
<path d="M65.7816 18.5769H35.6204C35.1784 18.5769 34.8248 18.2129 34.8248 17.7762C34.8248 17.3394 35.1864 16.9754 35.6204 16.9754H65.7816C66.2236 16.9754 66.5772 17.3394 66.5772 17.7762C66.5772 18.221 66.2155 18.5769 65.7816 18.5769Z" fill="#B7BBC4"/>
<path d="M73.578 21.7798H27.824C27.3894 21.7798 27.0273 21.4158 27.0273 20.9791C27.0273 20.5423 27.3894 20.1783 27.824 20.1783H73.578C74.0125 20.1783 74.3746 20.5423 74.3746 20.9791C74.3746 21.4158 74.0125 21.7798 73.578 21.7798Z" fill="#B7BBC4"/>
<path d="M67.6058 31.6287H34.5196C34.2059 31.6287 33.9405 31.3796 33.9405 31.0682C33.9405 30.7568 34.1979 30.5077 34.5196 30.5077H67.6058C67.9195 30.5077 68.1849 30.7568 68.1849 31.0682C68.1849 31.3796 67.9275 31.6287 67.6058 31.6287Z" fill="#B7BBC4"/>
<path d="M37.8651 34.5914H28.569C28.2564 34.5914 27.992 34.3423 27.992 34.0309C27.992 33.7273 28.2484 33.4704 28.569 33.4704H37.8651C38.1777 33.4704 38.4421 33.7195 38.4421 34.0309C38.4421 34.3423 38.1777 34.5914 37.8651 34.5914Z" fill="#B7BBC4"/>
<path d="M51.9294 34.5914H40.6301C40.3158 34.5914 40.0498 34.3423 40.0498 34.0309C40.0498 33.7273 40.3077 33.4704 40.6301 33.4704H51.9294C52.2437 33.4704 52.5096 33.7195 52.5096 34.0309C52.5016 34.3423 52.2437 34.5914 51.9294 34.5914Z" fill="#B7BBC4"/>
<path d="M73.6344 34.5914H54.1341C53.8202 34.5914 53.5547 34.3423 53.5547 34.0309C53.5547 33.7273 53.8122 33.4704 54.1341 33.4704H73.6344C73.9482 33.4704 74.2138 33.7195 74.2138 34.0309C74.2138 34.3423 73.9563 34.5914 73.6344 34.5914Z" fill="#B7BBC4"/>
<path d="M52.0108 38.1146H33.8767C33.5629 38.1146 33.2974 37.8655 33.2974 37.5541C33.2974 37.2505 33.5548 36.9936 33.8767 36.9936H52.0108C52.3245 36.9936 52.59 37.2427 52.59 37.5541C52.59 37.8655 52.3245 38.1146 52.0108 38.1146Z" fill="#B7BBC4"/>
<path d="M68.2489 38.1146H53.973C53.6593 38.1146 53.3939 37.8655 53.3939 37.5541C53.3939 37.2505 53.6513 36.9936 53.973 36.9936H68.2489C68.5626 36.9936 68.828 37.2427 68.828 37.5541C68.8199 37.8655 68.5626 38.1146 68.2489 38.1146Z" fill="#B7BBC4"/>
<path d="M24.3156 84.4768H7.07023C6.1041 84.4768 5.32315 83.6986 5.32315 82.7358V78.0504C5.32315 77.0876 6.1041 76.3094 7.07023 76.3094H24.3156C25.2818 76.3094 26.0627 77.0876 26.0627 78.0504V82.7358C26.0627 83.6986 25.2818 84.4768 24.3156 84.4768Z" fill="#F9EDED"/>
<path d="M20.8135 78.3112H7.83923C7.69453 78.3112 7.57395 78.202 7.57395 78.071C7.57395 77.9399 7.69453 77.8307 7.83923 77.8307H20.8135C20.9582 77.8307 21.0788 77.9399 21.0788 78.071C21.0788 78.2093 20.9582 78.3112 20.8135 78.3112Z" fill="#F0D2D1"/>
<path d="M10.1237 79.4323H7.83772C7.69385 79.4323 7.57395 79.3231 7.57395 79.192C7.57395 79.061 7.69385 78.9518 7.83772 78.9518H10.1237C10.2676 78.9518 10.3875 79.061 10.3875 79.192C10.3795 79.3231 10.2676 79.4323 10.1237 79.4323Z" fill="#F0D2D1"/>
<path d="M17.4354 79.4323H11.0565C10.9108 79.4323 10.7894 79.3231 10.7894 79.192C10.7894 79.061 10.9108 78.9518 11.0565 78.9518H17.4354C17.5811 78.9518 17.7026 79.061 17.7026 79.192C17.7026 79.3231 17.5811 79.4323 17.4354 79.4323Z" fill="#F0D2D1"/>
<path d="M20.8135 81.5942H7.83923C7.69453 81.5942 7.57395 81.4668 7.57395 81.3139C7.57395 81.1611 7.69453 81.0337 7.83923 81.0337H20.8135C20.9582 81.0337 21.0788 81.1611 21.0788 81.3139C21.0788 81.4668 20.9582 81.5942 20.8135 81.5942Z" fill="#F0D2D1"/>
<path d="M12.5346 82.7152H7.83842C7.69416 82.7152 7.57395 82.5878 7.57395 82.435C7.57395 82.2821 7.69416 82.1547 7.83842 82.1547H12.5346C12.6788 82.1547 12.799 82.2821 12.799 82.435C12.799 82.5878 12.6788 82.7152 12.5346 82.7152Z" fill="#F0D2D1"/>
<path d="M18.3183 82.7152H13.5499C13.4034 82.7152 13.2813 82.5878 13.2813 82.435C13.2813 82.2821 13.4034 82.1547 13.5499 82.1547H18.3183C18.4648 82.1547 18.5868 82.2821 18.5868 82.435C18.5868 82.5878 18.4648 82.7152 18.3183 82.7152Z" fill="#F0D2D1"/>
</svg>
