<svg width="24" height="24" viewBox="0 0 24 24" fill="none">
  <path fill-rule="evenodd" clip-rule="evenodd" d="M11.999 4C6.99902 4 2.72902 7.11 0.999023 11.5C2.72902 15.89 6.99902 19 11.999 19C16.999 19 21.269 15.89 22.999 11.5C21.269 7.11 16.999 4 11.999 4ZM11.999 16.5C9.23902 16.5 6.99902 14.26 6.99902 11.5C6.99902 8.74 9.23902 6.5 11.999 6.5C14.759 6.5 16.999 8.74 16.999 11.5C16.999 14.26 14.759 16.5 11.999 16.5ZM11.999 8.5C10.339 8.5 8.99902 9.84 8.99902 11.5C8.99902 13.16 10.339 14.5 11.999 14.5C13.659 14.5 14.999 13.16 14.999 11.5C14.999 9.84 13.659 8.5 11.999 8.5Z" fill="currentColor"/>
</svg>
