<svg width="16" height="16" viewBox="0 0 16 16" fill="none">
<path d="M12 8.66668H8.66667V12C8.66667 12.3667 8.36667 12.6667 8 12.6667C7.63333 12.6667 7.33333 12.3667 7.33333 12V8.66668H4C3.63333 8.66668 3.33333 8.36668 3.33333 8.00001C3.33333 7.63334 3.63333 7.33334 4 7.33334H7.33333V4.00001C7.33333 3.63334 7.63333 3.33334 8 3.33334C8.36667 3.33334 8.66667 3.63334 8.66667 4.00001V7.33334H12C12.3667 7.33334 12.6667 7.63334 12.6667 8.00001C12.6667 8.36668 12.3667 8.66668 12 8.66668Z" fill="currentColor"/>
</svg>
