<svg width="14" height="14" viewBox="0 0 14 14" fill="none">
  <path fill-rule="evenodd" clip-rule="evenodd" d="M6.99967 0.333374C3.31967 0.333374 0.333008 3.32004 0.333008 7.00004C0.333008 10.68 3.31967 13.6667 6.99967 13.6667C10.6797 13.6667 13.6663 10.68 13.6663 7.00004C13.6663 3.32004 10.6797 0.333374 6.99967 0.333374ZM6.99967 10.3334C6.63301 10.3334 6.33301 10.0334 6.33301 9.66671V7.00004C6.33301 6.63337 6.63301 6.33337 6.99967 6.33337C7.36634 6.33337 7.66634 6.63337 7.66634 7.00004V9.66671C7.66634 10.0334 7.36634 10.3334 6.99967 10.3334ZM7.66634 5.00004H6.33301V3.66671H7.66634V5.00004Z" fill="currentColor"/>
</svg>
