<svg width="24" height="24" viewBox="0 0 24 24" fill="none" xmlns="http://www.w3.org/2000/svg">
<path opacity="0.5" fill-rule="evenodd" clip-rule="evenodd" d="M4 10.8334C4 7.05942 7.05942 4 10.8334 4C14.6073 4 17.6667 7.05942 17.6667 10.8334C17.6667 12.4612 17.0975 13.9562 16.1472 15.13L18.7893 17.7721C19.0702 18.053 19.0702 18.5084 18.7893 18.7893C18.5084 19.0702 18.053 19.0702 17.7721 18.7893L15.13 16.1472C13.9562 17.0975 12.4612 17.6667 10.8334 17.6667C7.05942 17.6667 4 14.6073 4 10.8334ZM10.8334 5.4386C7.85394 5.4386 5.4386 7.85394 5.4386 10.8334C5.4386 13.8128 7.85394 16.2281 10.8334 16.2281C13.8128 16.2281 16.2281 13.8128 16.2281 10.8334C16.2281 7.85394 13.8128 5.4386 10.8334 5.4386ZM8.29025 7.93057C8.94033 7.28054 9.84044 6.87721 10.8334 6.87721C11.8263 6.87721 12.7264 7.28053 13.3765 7.93058C13.6574 8.21149 13.6574 8.66693 13.3765 8.94783C13.0956 9.22874 12.6401 9.22874 12.3592 8.94783C11.9679 8.55655 11.4294 8.31581 10.8334 8.31581C10.2373 8.31581 9.69879 8.55655 9.30746 8.94785C9.02655 9.22874 8.57111 9.22873 8.29022 8.94781C8.00932 8.6669 8.00934 8.21146 8.29025 7.93057Z" fill="currentColor"/>
</svg>
