<svg width="12" height="12" viewBox="0 0 12 12" fill="none">
<path d="M9 6.00252C9 6.27752 9.225 6.50252 9.5 6.50252H10.5C10.775 6.50252 11 6.27752 11 6.00252C11 5.72752 10.775 5.50252 10.5 5.50252H9.5C9.225 5.50252 9 5.72752 9 6.00252Z" fill="currentColor"/>
<path d="M8.295 8.41252C8.13 8.63252 8.175 8.93752 8.395 9.09752C8.66 9.29252 8.94 9.50252 9.205 9.70252C9.425 9.86752 9.735 9.82252 9.895 9.60252C9.895 9.59752 9.9 9.59752 9.9 9.59252C10.065 9.37252 10.02 9.06252 9.8 8.90252C9.535 8.70252 9.255 8.49252 8.995 8.29752C8.775 8.13252 8.465 8.18252 8.3 8.40252C8.3 8.40752 8.295 8.41252 8.295 8.41252Z" fill="currentColor"/>
<path d="M9.905 2.40752C9.905 2.40252 9.9 2.40252 9.9 2.39752C9.735 2.17752 9.425 2.13252 9.21 2.29752C8.945 2.49752 8.66 2.70752 8.4 2.90752C8.18 3.07252 8.14 3.38252 8.305 3.59752C8.305 3.60252 8.31 3.60252 8.31 3.60752C8.475 3.82752 8.78 3.87252 9 3.70752C9.265 3.51252 9.545 3.29752 9.81 3.09752C10.025 2.93752 10.065 2.62752 9.905 2.40752Z" fill="currentColor"/>
<path d="M4 4.50252H2C1.45 4.50252 1 4.95252 1 5.50252V6.50252C1 7.05252 1.45 7.50252 2 7.50252H2.5V9.00252C2.5 9.27752 2.725 9.50252 3 9.50252C3.275 9.50252 3.5 9.27752 3.5 9.00252V7.50252H4L6.5 9.00252V3.00252L4 4.50252Z" fill="currentColor"/>
<path d="M7.75 6.00252C7.75 5.33752 7.46 4.73752 7 4.32752V7.67252C7.46 7.26752 7.75 6.66752 7.75 6.00252Z" fill="currentColor"/>
</svg>
